<svg width="170" height="150" viewBox="0 0 170 150" fill="none" xmlns="http://www.w3.org/2000/svg">
<path d="M128.201 64.7847V31.2153C128.201 26.0568 125.47 21.2945 121.034 18.7152L92.1674 1.93445C87.7316 -0.644817 82.2699 -0.644817 77.8342 1.93445L48.9674 18.7152C44.5316 21.2945 41.8008 26.0646 41.8008 31.2153V64.7847C41.8008 69.9432 44.5316 74.7055 48.9674 77.2848L77.8342 94.0656C82.2699 96.6448 87.7316 96.6448 92.1674 94.0656L121.034 77.2848C125.47 74.7055 128.201 69.9432 128.201 64.7847Z" fill="url(#paint0_linear_14_276)"/>
<path d="M85.0003 22.8643C71.2149 22.8643 61.8575 32.1403 60.0909 43.9878L70.4203 44.9356C71.6623 38.1767 76.9775 32.9405 85.0003 32.9405C94.2112 32.9405 99.858 39.847 99.858 48.0354C99.858 56.2238 94.2189 63.1381 85.0003 63.1381C82.2232 63.1381 79.7777 62.5088 77.7103 61.4056C75.8666 60.4268 74.3315 59.0594 73.128 57.4358C73.1126 57.4202 73.1126 57.4124 73.1049 57.3969L73.4983 57.0551L79.6929 51.8577L60.2529 50.0786L60.2143 50.4748L60.0678 52.0131L58.4092 69.7339L65.1592 64.0781C65.1592 64.0781 65.1746 64.1014 65.1823 64.117C66.432 65.6941 67.89 67.1002 69.5255 68.2966C73.6295 71.3343 78.8675 73.1289 84.9926 73.1289C100.352 73.1289 110.203 61.8407 110.203 48.1053C110.203 34.37 100.282 22.8643 84.9926 22.8643H85.0003Z" fill="white"/>
<path d="M0.507812 132.458C0.507812 126.293 4.95427 121.134 11.8862 121.134C18.8182 121.134 23.2647 126.298 23.2647 132.458C23.2647 138.618 18.8182 143.689 11.8862 143.689C4.95427 143.689 0.507812 138.623 0.507812 132.458ZM18.5878 132.424C18.5878 128.747 16.0434 125.65 11.8862 125.65C7.72901 125.65 5.18468 128.747 5.18468 132.424C5.18468 136.1 7.6996 139.198 11.8862 139.198C16.0729 139.198 18.5878 136.066 18.5878 132.424Z" fill="#906FD8"/>
<path d="M41.2421 133.94V143.232H36.8937V134.583C36.8937 132.262 35.4132 130.971 33.6042 130.971C31.6383 130.971 29.9617 132.487 29.9617 134.907V143.232H25.6084V127.162H29.8293V129.096H29.9911C31.0549 127.613 32.859 126.71 34.8592 126.71C38.7566 126.71 41.2421 129.326 41.2421 133.94Z" fill="#906FD8"/>
<path d="M63.4102 131.359H56.8017V137.779C56.8017 138.555 57.3165 139.007 58.0911 139.007H63.4102V143.233H57.2871C54.3555 143.233 52.4533 141.426 52.4533 138.521V131.359H50.1982V127.162H52.4533V121.61H56.8067V127.162H63.4151V131.359H63.4102Z" fill="#906FD8"/>
<path d="M81.5194 133.941V143.233H77.1661V134.584C77.1661 132.262 75.6856 130.971 73.8766 130.971C71.9108 130.971 70.2342 132.488 70.2342 134.908V143.233H65.8809V120H70.2342V129.101H70.3616C71.4255 127.618 73.1315 126.715 75.1316 126.715C79.029 126.715 81.5146 129.331 81.5146 133.945L81.5194 133.941Z" fill="#906FD8"/>
<path d="M99.8542 136.65H87.7355C87.9954 138.294 89.4121 139.684 91.6378 139.782C93.1183 139.846 94.5694 139.168 95.1479 138.137H99.6924C98.6286 141.721 95.4372 143.719 91.6378 143.719C86.2256 143.719 83.2891 139.718 83.2891 135.202C83.2891 130.426 86.7354 126.681 91.6672 126.681C97.0157 126.681 100.433 130.971 99.8542 136.65ZM87.7698 133.263H95.4421C94.9567 131.584 93.5105 130.583 91.6378 130.583C89.7651 130.583 88.2208 131.648 87.7698 133.263Z" fill="#906FD8"/>
<path d="M128.406 127.162H132.917L127.794 143.233H123.636L120.509 133.003L117.352 143.233H113.194L108.071 127.162H112.581L115.547 137.2L118.543 127.162H122.445L125.504 137.2L128.406 127.162Z" fill="#906FD8"/>
<path d="M145.839 127.162H150.158V143.233H145.839V141.102H145.677C144.677 142.585 142.844 143.684 140.49 143.719C136.137 143.719 132.853 140.297 132.853 135.232C132.853 130.166 135.98 126.647 140.525 126.681C142.844 126.681 144.682 127.78 145.682 129.228H145.844V127.162H145.839ZM145.839 135.197C145.839 132.714 144.064 130.809 141.554 130.809C139.044 130.809 137.235 132.679 137.235 135.197C137.235 137.716 139.01 139.586 141.554 139.586C144.099 139.586 145.839 137.583 145.839 135.197Z" fill="#906FD8"/>
<path d="M165.075 127.162H169.493L163.11 145.844C162.271 148.264 160.467 149.683 157.952 149.683H153.378V145.422H157.825C158.276 145.422 158.629 145.324 158.923 145.133L151.545 127.157H156.315L161.149 139.355L165.08 127.157L165.075 127.162Z" fill="#906FD8"/>
<defs>
<linearGradient id="paint0_linear_14_276" x1="42.0934" y1="19.8165" x2="121.243" y2="80.5851" gradientUnits="userSpaceOnUse">
<stop stop-color="#DCA7F6"/>
<stop offset="1" stop-color="#906FD8"/>
</linearGradient>
</defs>
</svg>
