<svg width="58" height="40" viewBox="0 0 58 40" fill="none" xmlns="http://www.w3.org/2000/svg">
<rect x="0.5" y="0.5" width="57" height="39" rx="7.5" fill="white"/>
<rect x="0.5" y="0.5" width="57" height="39" rx="7.5" stroke="#F0F0F0"/>
<path fill-rule="evenodd" clip-rule="evenodd" d="M28.6316 28.0491C26.6582 29.7125 24.0984 30.7166 21.3011 30.7166C15.0597 30.7166 10 25.7171 10 19.55C10 13.3828 15.0597 8.3833 21.3011 8.3833C24.0984 8.3833 26.6582 9.38746 28.6316 11.0509C30.605 9.38746 33.1649 8.3833 35.9621 8.3833C42.2036 8.3833 47.2632 13.3828 47.2632 19.55C47.2632 25.7171 42.2036 30.7166 35.9621 30.7166C33.1649 30.7166 30.605 29.7125 28.6316 28.0491Z" fill="#ED0006"/>
<path fill-rule="evenodd" clip-rule="evenodd" d="M28.6328 28.0491C31.0627 26.0009 32.6035 22.9532 32.6035 19.55C32.6035 16.1467 31.0627 13.099 28.6328 11.0509C30.6062 9.38746 33.1661 8.3833 35.9633 8.3833C42.2047 8.3833 47.2644 13.3828 47.2644 19.55C47.2644 25.7171 42.2047 30.7166 35.9633 30.7166C33.1661 30.7166 30.6062 29.7125 28.6328 28.0491Z" fill="#F9A000"/>
<path fill-rule="evenodd" clip-rule="evenodd" d="M28.6308 28.0492C31.0607 26.001 32.6014 22.9533 32.6014 19.5501C32.6014 16.1469 31.0607 13.0992 28.6308 11.051C26.2009 13.0992 24.6602 16.1469 24.6602 19.5501C24.6602 22.9533 26.2009 26.001 28.6308 28.0492Z" fill="#FF5E00"/>
</svg>
