<svg width="22" height="20" viewBox="0 0 22 20" fill="none" xmlns="http://www.w3.org/2000/svg">
<path d="M1.99976 1L5.58891 4.58916M19.9998 19L16.411 15.4112M12.8746 16.8246C12.2675 16.9398 11.6409 17 11.0002 17C6.52256 17 2.73226 14.0571 1.45801 9.99997C1.80491 8.8955 2.33826 7.87361 3.02119 6.97118M8.87844 7.87868C9.42133 7.33579 10.1713 7 10.9998 7C12.6566 7 13.9998 8.34315 13.9998 10C13.9998 10.8284 13.664 11.5784 13.1211 12.1213M8.87844 7.87868L13.1211 12.1213M8.87844 7.87868L5.58891 4.58916M13.1211 12.1213L5.58891 4.58916M13.1211 12.1213L16.411 15.4112M5.58891 4.58916C7.14874 3.58354 9.00632 3 11.0002 3C15.4778 3 19.2681 5.94291 20.5424 10C19.8355 12.2507 18.3543 14.1585 16.411 15.4112" stroke="#ABABAB" stroke-width="1.5" stroke-linecap="round" stroke-linejoin="round"/>
</svg>
