<svg width="24" height="24" viewBox="0 0 24 24" fill="none" xmlns="http://www.w3.org/2000/svg">
<path fill-rule="evenodd" clip-rule="evenodd" d="M12 21.6004C17.302 21.6004 21.6 17.3023 21.6 12.0004C21.6 6.69846 17.302 2.40039 12 2.40039C6.69809 2.40039 2.40002 6.69846 2.40002 12.0004C2.40002 17.3023 6.69809 21.6004 12 21.6004ZM10.4486 8.75186C9.97992 8.28323 9.22013 8.28323 8.7515 8.75186C8.28287 9.22049 8.28287 9.98029 8.7515 10.4489L10.303 12.0004L8.7515 13.5519C8.28287 14.0205 8.28287 14.7803 8.7515 15.2489C9.22012 15.7175 9.97992 15.7175 10.4486 15.2489L12 13.6974L13.5515 15.2489C14.0201 15.7175 14.7799 15.7175 15.2486 15.2489C15.7172 14.7803 15.7172 14.0205 15.2486 13.5519L13.6971 12.0004L15.2486 10.4489C15.7172 9.98029 15.7172 9.22049 15.2486 8.75186C14.7799 8.28323 14.0201 8.28323 13.5515 8.75186L12 10.3033L10.4486 8.75186Z" fill="#EF4444"/>
</svg>
